<?xml version="1.0" encoding="UTF-8"?>
<svg width="86px" height="86px" viewBox="0 0 86 86" version="1.1" xmlns="http://www.w3.org/2000/svg" xmlns:xlink="http://www.w3.org/1999/xlink">
    <!-- Generator: Sketch 44 (41411) - http://www.bohemiancoding.com/sketch -->
    <title>iconography/airplane_1_b</title>
    <desc>Created with Sketch.</desc>
    <defs></defs>
    <g id="Page-1" stroke="none" stroke-width="1" fill="none" fill-rule="evenodd">
        <g id="iconography/airplane_1_b" fill-rule="nonzero">
            <rect id="Rectangle-path" fill="#000000" x="0.6" y="0" width="85.1" height="85.1"></rect>
            <path d="M67.9988208,18.7629717 C66.3183962,18.4976415 65.2570755,18.9398585 65.0801887,19.0283019 L38.5471698,28.2264151 L34.2134434,23.8926887 C34.0365566,23.7158019 33.8596698,23.7158019 33.682783,23.8042453 L30.8525943,25.5731132 L25.8113208,20.5318396 C13.5176887,7.97287736 6.79599057,7 6.53066038,7 C6.35377358,7 6.26533019,7 6.17688679,7.17688679 C6.0884434,7.35377358 6,7.35377358 6,7.53066038 C6,7.79599057 6.97287736,14.5176887 19.620283,26.8113208 L24.6615566,31.8525943 L22.8926887,34.682783 C22.8042453,34.8596698 22.8042453,35.125 22.9811321,35.2134434 L27.3148585,39.5471698 L18.1167453,66.0801887 C18.0283019,66.2570755 17.5860849,67.3183962 17.8514151,68.9988208 C18.1167453,70.5908019 19.0011792,72.9787736 22.0082547,75.4551887 C22.0966981,75.5436321 22.1851415,75.5436321 22.3620283,75.5436321 C22.4504717,75.5436321 22.6273585,75.4551887 22.7158019,75.3667453 L42.5271226,50.6025943 L56.3242925,62.0117925 L53.6709906,76.870283 C53.5825472,77.2240566 53.0518868,79.2582547 55.9705189,81.9115566 C56.0589623,82 56.2358491,82 56.3242925,82 C56.5011792,82 56.5896226,81.9115566 56.678066,81.8231132 L65.2570755,68.2028302 L67.2028302,66.2570755 L80.7346698,57.5896226 C80.7346698,57.5896226 80.8231132,57.5896226 80.8231132,57.5011792 C80.9115566,57.4127358 80.9115566,57.3242925 80.9115566,57.2358491 C80.9115566,57.0589623 80.9115566,56.9705189 80.8231132,56.8820755 C78.2582547,53.9634434 76.2240566,54.4056604 75.7818396,54.5825472 L60.9233491,57.2358491 L49.6025943,43.4386792 L74.3667453,23.6273585 C74.4551887,23.5389151 74.5436321,23.4504717 74.5436321,23.2735849 C74.5436321,23.1851415 74.5436321,23.0082547 74.4551887,22.9198113 C71.9787736,19.9127358 69.5908019,19.0283019 67.9988208,18.7629717 Z" id="Shape" fill="#FFFFFF"></path>
        </g>
    </g>
</svg>