<?xml version="1.0" encoding="UTF-8"?>
<svg width="86px" height="86px" viewBox="0 0 86 86" version="1.1" xmlns="http://www.w3.org/2000/svg" xmlns:xlink="http://www.w3.org/1999/xlink">
    <!-- Generator: Sketch 44 (41411) - http://www.bohemiancoding.com/sketch -->
    <title>iconography/airplane_2_b</title>
    <desc>Created with Sketch.</desc>
    <defs></defs>
    <g id="Page-1" stroke="none" stroke-width="1" fill="none" fill-rule="evenodd">
        <g id="iconography/airplane_2_b" fill-rule="nonzero">
            <rect id="Rectangle-path" fill="#000000" x="0" y="0" width="85.1" height="85.1"></rect>
            <path d="M74.9619937,16.954949 L70.3687114,13.8026965 C70.2786471,13.7126321 70.0985184,13.7126321 69.9183896,13.7126321 L44.2500475,21.8184244 L31.6410373,23.5296472 L24.9762747,16.8648847 C24.8862104,16.6847559 21.5538291,13.0821816 16.8704825,10.0199934 C14.1685517,8.21870623 11.8268784,6.86774085 10.0255912,6.05716163 C7.59385353,4.88632496 6.15282379,4.70619625 5.43230892,5.42671112 C4.71179405,6.14722598 4.89192277,7.58825572 5.97269507,10.0199934 C6.7832743,11.8212806 8.22430404,14.2530183 9.93552685,16.8648847 C13.0877794,21.5482313 16.6903537,24.8806126 16.8704825,25.0607413 L23.535245,31.7255038 L21.8240222,44.334514 L13.7182299,70.0028562 C13.7182299,70.1829849 13.7182299,70.2730493 13.8082943,70.453178 L16.9605468,75.0464603 C17.0506112,75.226589 17.2307399,75.226589 17.4108686,75.226589 C17.5909973,75.226589 17.771126,75.1365246 17.771126,74.9563959 L30.2900719,51.359534 L36.6846413,44.9649645 L42.1785672,50.4588904 C42.4487603,50.7290835 48.393008,56.4932024 52.5359684,59.1050688 C53.7068051,59.8255837 55.1478348,60.6361629 56.949122,61.7169352 L54.6074487,76.48749 C54.6074487,76.6676187 54.6074487,76.7576831 54.7875774,76.9378118 L57.6696369,79.8198713 C57.7597012,79.9099356 57.93983,80 58.1199587,80 C58.3000874,80 58.3901518,79.9099356 58.4802161,79.7298069 L66.0456222,66.3102175 L66.1356866,66.2201531 L79.555276,58.654747 C79.555276,58.654747 79.6453404,58.5646827 79.6453404,58.5646827 C79.7354047,58.4746183 79.7354047,58.3845539 79.8254691,58.2944896 C79.8254691,58.1143609 79.8254691,58.0242965 79.6453404,57.8441678 L76.7632809,54.9621083 C76.6732165,54.872044 76.4930878,54.7819796 76.3129591,54.7819796 L61.722533,57.0335886 C60.7318251,55.2323014 59.8311815,53.7912717 59.1106666,52.620435 C56.5888646,48.4774745 50.7346813,42.4431625 50.4644882,42.2630338 C50.3744238,42.1729694 50.2843595,42.1729694 50.1942951,42.1729694 L44.880498,36.8591723 L51.2750674,30.4646028 L74.8719294,17.945657 C74.8719294,17.945657 74.9619937,17.8555926 74.9619937,17.8555926 C75.1421224,17.6754639 75.1421224,17.3152064 74.9619937,17.1350777 C75.0520581,17.0450134 74.9619937,17.0450134 74.9619937,16.954949 Z" id="Shape" fill="#FFFFFF"></path>
        </g>
    </g>
</svg>