<?xml version="1.0" encoding="UTF-8"?>
<svg width="86px" height="24px" viewBox="0 0 86 24" version="1.1" xmlns="http://www.w3.org/2000/svg" xmlns:xlink="http://www.w3.org/1999/xlink">
    <!-- Generator: Sketch 44 (41411) - http://www.bohemiancoding.com/sketch -->
    <title>iconography/airplane_3_b</title>
    <desc>Created with Sketch.</desc>
    <defs></defs>
    <g id="Page-1" stroke="none" stroke-width="1" fill="none" fill-rule="evenodd">
        <g id="iconography/airplane_3_b" fill-rule="nonzero">
            <rect id="Rectangle-path" fill="#000000" x="0.4" y="0.3" width="85.1" height="23"></rect>
            <path d="M50.0161049,4.91288783 L48.8884199,4.48329356 L44.1628829,7.41885442 L42.2118089,8.5823389 L39.8669402,6.21957041 C39.8311407,6.18377088 39.1688495,5.44988067 38.2022624,4.80548926 C37.6652695,4.44749403 37.181976,4.17899761 36.806081,4 C36.806081,4 36.3048877,4.01789976 36.1437898,4.16109785 C35.982692,4.30429594 36.0005917,4.80548926 36.0005917,4.80548926 C36.1795893,5.18138425 36.4480858,5.6646778 36.806081,6.20167064 C37.4504724,7.150358 38.1664628,7.83054893 38.2201621,7.86634845 L40.5292313,10.2649165 L39.4910452,12.0906921 L36.4838853,16.9057279 C36.4659855,16.9415274 36.9313793,18.0334129 36.9313793,18.0334129 L40.9588256,13.2183771 L42.2655082,11.9116945 L43.3752934,13.0214797 C43.4289927,13.075179 44.6282767,14.2565632 45.4874652,14.7756563 C45.7201621,14.9188544 46.0244581,15.097852 46.3824533,15.2947494 L45.8991597,18.2840095 C45.8991597,18.3198091 45.8991597,18.3556086 45.9349593,18.3735084 L46.5256514,18.9642005 C46.5435512,18.9821002 46.5793507,19 46.6151502,19 C46.6509497,19 46.6688495,18.9821002 46.6867492,18.9463007 L48.2261287,16.2076372 L48.2440285,16.1897375 L50.982692,14.650358 C50.982692,14.650358 51.0005917,14.6324582 51.0005917,14.6324582 C51.0184915,14.6145585 51.0184915,14.5966587 51.0363913,14.5787589 C51.0363913,14.5429594 51.0363913,14.5250597 51.0005917,14.4892601 L50.4098996,13.898568 C50.3919998,13.8806683 50.3562003,13.8627685 50.3204008,13.8627685 L47.3311407,14.3460621 C47.1163435,13.9880668 46.9552457,13.6837709 46.8120476,13.451074 C46.2929545,12.6097852 45.1115702,11.3926014 45.057871,11.3389021 C45.0399712,11.3210024 45.0220714,11.3210024 45.0041717,11.3031026 L43.930186,10.2291169 L45.2368686,8.92243437 C45.2189688,8.95823389 50.0340046,4.91288783 50.0161049,4.91288783 Z" id="Shape" fill="#FFFFFF"></path>
        </g>
    </g>
</svg>