<?xml version="1.0" encoding="UTF-8"?>
<svg width="16px" height="29px" viewBox="0 0 16 29" version="1.1" xmlns="http://www.w3.org/2000/svg" xmlns:xlink="http://www.w3.org/1999/xlink">
    <!-- Generator: Sketch 44.1 (41455) - http://www.bohemiancoding.com/sketch -->
    <title>iconography/facebook</title>
    <desc>Created with Sketch.</desc>
    <defs></defs>
    <g id="Page-1" stroke="none" stroke-width="1" fill="none" fill-rule="evenodd">
        <g id="img/muted-copy" transform="translate(-16.000000, -9.000000)" stroke="#000000" fill="#FFFFFF">
            <path d="M25.9140648,11.9375 C25.7317722,11.9375 25.5494823,11.9511717 25.3671898,11.9785156 C25.1848972,12.0058595 24.9388059,12.0559892 24.6289085,12.1289062 C24.3190111,12.2018233 24.0364619,12.3294262 23.7812523,12.5117188 C23.5260427,12.6940113 23.2753941,12.9127591 23.0292991,13.1679688 C22.7832042,13.4231784 22.5872426,13.7740863 22.4414085,14.2207031 C22.2955745,14.6673199 22.2226585,15.1731743 22.2226585,15.7382812 L22.2226585,19.8125 L18.7226585,19.8125 L18.7226585,22.4375 L22.2226585,22.4375 L22.2226585,35.5625 L24.8476585,35.5625 L24.8476585,22.4375 L28.6484398,22.4375 L29.277346,19.8125 L24.8476585,19.8125 L24.8476585,15.6015625 C24.8476585,15.5833332 24.8522158,15.5514325 24.8613304,15.5058594 L24.8886741,15.3691406 C24.8977888,15.3235675 24.9160178,15.2688805 24.9433616,15.2050781 C24.9707055,15.1412757 25.0071635,15.0820315 25.0527366,15.0273438 C25.0983098,14.972656 25.1529967,14.917969 25.2167991,14.8632812 C25.2806015,14.8085935 25.3489602,14.7584638 25.4218773,14.7128906 C25.4947943,14.6673175 25.5904965,14.6354168 25.7089866,14.6171875 C25.8274768,14.5989582 25.9505225,14.5898438 26.0781273,14.5898438 L28.3476585,14.5898438 L28.3476585,11.9648438 L26.0781273,11.9648438 L25.9140648,11.9375 Z M25.9140648,10.1875 C25.9869818,10.1875 26.0598977,10.1966145 26.1328148,10.2148438 L28.3750023,10.2148438 C28.848963,10.2148438 29.2545579,10.3834619 29.5917991,10.7207031 C29.9290404,11.0579444 30.0976585,11.4726538 30.0976585,11.9648438 L30.0976585,14.5898438 C30.0976585,15.0638045 29.9244832,15.4739566 29.5781273,15.8203125 C29.2317714,16.1666684 28.8216192,16.3398438 28.3476585,16.3398438 L26.5976585,16.3398438 L26.5976585,18.0625 L29.277346,18.0625 C29.8606823,18.0625 30.3255214,18.2949196 30.6718773,18.7597656 C31.0182332,19.2246117 31.1093781,19.7395805 30.9453148,20.3046875 L30.3437523,22.9296875 C30.2343767,23.2942727 30.0247434,23.5950509 29.714846,23.8320312 C29.4049486,24.0690116 29.0494834,24.1875 28.6484398,24.1875 L26.5976585,24.1875 L26.5976585,35.5351562 C26.5976585,36.0273462 26.4244832,36.4420556 26.0781273,36.7792969 C25.7317714,37.1165381 25.3216192,37.2851562 24.8476585,37.2851562 L22.2226585,37.2851562 C21.7304686,37.2851562 21.3157592,37.1165381 20.9785179,36.7792969 C20.6412766,36.4420556 20.4726585,36.0273462 20.4726585,35.5351562 L20.4726585,24.1875 L18.7226585,24.1875 C18.2486978,24.1875 17.8385457,24.0143246 17.4921898,23.6679688 C17.1458339,23.3216129 16.9726585,22.9114607 16.9726585,22.4375 L16.9726585,19.8125 C16.9726585,19.3385393 17.1458339,18.9283871 17.4921898,18.5820312 C17.8385457,18.2356754 18.2486978,18.0625 18.7226585,18.0625 L20.4726585,18.0625 L20.4726585,15.7382812 C20.4726585,13.5507703 21.2747338,11.9739632 22.8789085,11.0078125 C23.7721421,10.4609348 24.7838508,10.1875 25.9140648,10.1875 Z" id="iconography/facebook"></path>
        </g>
    </g>
</svg>