<?xml version="1.0" encoding="UTF-8"?>
<svg width="1601px" height="356px" viewBox="0 0 1601 356" version="1.1" xmlns="http://www.w3.org/2000/svg" xmlns:xlink="http://www.w3.org/1999/xlink">
    <!-- Generator: Sketch 44 (41411) - http://www.bohemiancoding.com/sketch -->
    <title>iconography/logotype</title>
    <desc>Created with Sketch.</desc>
    <defs></defs>
    <g id="Page-1" stroke="none" stroke-width="1" fill="none" fill-rule="evenodd">
        <g id="iconography/logotype" fill-rule="nonzero">
            <rect id="Rectangle-path" fill="#000000" x="0" y="0.4" width="1601" height="355.6"></rect>
            <path d="M238.8,126 C248.9,126 246.5,126.1 261.2,126.1 C262.3,126.1 264.4,127.2 265.8,131.7 C267.1,135.8 269,139.9 272.5,146.9 C281.7,168.1 294.5,193.1 297.9,197.7 L303.3,188.7 C308.1,180 320.2,156.7 326.5,143.5 C327.7,140.9 331.3,132.4 332.4,128.7 C332.6,127.9 335.5,126.8 335.8,126.8 C348.8,126.6 361.1,126 362.6,126 C364.6,126 367.1,128.3 367.1,130 C367.1,130 366.5,133.2 361.9,133.2 C359.2,133.2 357.9,133.4 354.8,134.6 C352.6,135.4 351.3,139.7 351.3,148.1 C351.3,166.9 350.7,203.6 352.1,213.5 C352.8,218 357.1,221.1 363.7,225 C366.5,225.7 368.2,227.5 368.2,228.6 C368.2,230.6 365.6,231.2 363.1,231.2 C361.3,231.2 344.5,230.4 338.7,230.4 C335.7,230.4 328.9,230.4 325.3,230.8 C320.5,231.4 319.1,229 319.1,227.4 C319.1,225.9 320.3,224.9 322.6,224.4 C327.8,223 326.8,217.2 327.3,210.2 C328.2,197.7 327,173.2 326.8,165.5 C326.7,159.8 326,161.8 326,161.8 C319.1,176.2 310,193.1 305.9,202.7 C301.6,212.8 299.1,217.2 296.2,223.2 C293,229.9 291,231.4 288.9,231.8 C288.2,231.9 287.2,231.8 285.1,227.6 C284.2,225.9 280.9,219 277.9,211.3 C266.9,185.6 266.9,185.6 256.7,166.3 C256.7,166.3 253.5,158.1 253,160.3 C252.5,174.6 252.6,191.3 253.2,210.4 C253.5,219 259.3,223.6 263,223.5 C268.5,224.4 269.7,227.6 269.7,229.1 C269.7,230.4 266.3,231.3 263.5,231.3 C258.6,231.3 252.6,230.6 248.8,230.6 C244.8,230.6 236.9,231.4 233.3,231.4 C231,231.4 228,231.1 228,228.9 C228,227.6 229.8,226.8 233,225.4 C241.6,222.1 243.2,220.6 243.7,207.8 C244.3,193 243.5,162.6 243.5,146.8 C243.5,144.3 243,138.8 241.7,136.8 C238.8,135 237.9,134.5 235,133.8 C232.3,133.1 230.3,132.5 230.3,129.1 C230.1,126.1 235.3,126 238.8,126 Z" id="Shape" fill="#FFFFFF"></path>
            <path d="M1023.8,126 C1033.9,126 1031.5,126.1 1046.2,126.1 C1047.3,126.1 1049.4,127.2 1050.8,131.7 C1052.1,135.8 1054,139.9 1057.5,146.9 C1066.7,168.1 1079.5,193.1 1082.9,197.7 L1088.3,188.7 C1093.1,180 1105.2,156.7 1111.5,143.5 C1112.7,140.9 1116.3,132.4 1117.4,128.7 C1117.6,127.9 1120.5,126.8 1120.8,126.8 C1133.8,126.6 1146.1,126 1147.6,126 C1149.6,126 1152.1,128.3 1152.1,130 C1152.1,130 1151.5,133.2 1146.9,133.2 C1144.2,133.2 1142.9,133.4 1139.8,134.6 C1137.6,135.4 1136.3,139.7 1136.3,148.1 C1136.3,166.9 1135.7,203.6 1137.1,213.5 C1137.8,218 1142.1,221.1 1148.7,225 C1151.5,225.7 1153.2,227.5 1153.2,228.6 C1153.2,230.6 1150.6,231.2 1148.1,231.2 C1146.3,231.2 1129.5,230.4 1123.7,230.4 C1120.7,230.4 1113.9,230.4 1110.3,230.8 C1105.5,231.4 1104.1,229 1104.1,227.4 C1104.1,225.9 1105.3,224.9 1107.6,224.4 C1112.8,223 1111.8,217.2 1112.3,210.2 C1113.2,197.7 1112,173.2 1111.8,165.5 C1111.7,159.8 1111,161.8 1111,161.8 C1104.1,176.2 1095,193.1 1090.9,202.7 C1086.6,212.8 1084.1,217.2 1081.2,223.2 C1078,229.9 1076,231.4 1073.9,231.8 C1073.2,231.9 1072.2,231.8 1070.1,227.6 C1069.2,225.9 1065.9,219 1062.9,211.3 C1051.9,185.6 1051.9,185.6 1041.7,166.3 C1041.7,166.3 1038.5,158.1 1038,160.3 C1037.5,174.6 1037.6,191.3 1038.2,210.4 C1038.5,219 1044.3,223.6 1048,223.5 C1053.5,224.4 1054.7,227.6 1054.7,229.1 C1054.7,230.4 1051.3,231.3 1048.5,231.3 C1043.6,231.3 1037.6,230.6 1033.8,230.6 C1029.8,230.6 1021.9,231.4 1018.3,231.4 C1016,231.4 1013,231.1 1013,228.9 C1013,227.6 1014.8,226.8 1018,225.4 C1026.6,222.1 1028.2,220.6 1028.7,207.8 C1029.3,193 1028.5,162.6 1028.5,146.8 C1028.5,144.3 1028,138.8 1026.7,136.8 C1023.8,135 1022.9,134.5 1020,133.8 C1017.3,133.1 1015.3,132.5 1015.3,129.1 C1015.1,126.1 1020.4,126 1023.8,126 Z" id="Shape" fill="#FFFFFF"></path>
            <path d="M434.6,126.7 C440,126.7 445.3,126.2 448.8,126.9 C449.5,126.7 452.4,127 452.8,128.1 C453.8,131 453.1,142.8 453.1,146.1 C453.1,148.4 454.3,152.9 449.9,152.6 C447.6,152.4 447.2,146.7 446.9,144.9 C443.6,135.6 438.2,136 435.1,135.6 C430.9,135 427.8,134.4 412.4,134.4 C411.7,134.4 409.7,134.6 410,137.6 C410.3,141.6 409.3,160.7 409.3,172.7 C409.3,173.2 410.1,174.5 411.3,174.5 L427.3,174 C431.3,173.7 432.3,169 435.1,164 C436.6,161 441,152.5 441.9,161.1 C442.1,162.6 442.1,163.2 442.1,166 C442.1,166 441.8,170.8 441.8,175.6 C441.8,175.6 441.7,181 442.1,188.6 C442.4,194.7 438.9,194.9 437.6,192.3 C436.1,189.5 435.6,188.1 433.9,184.4 C432.9,182.3 433.1,181.7 428.2,181.7 C422.5,181.7 417.2,181.8 411.7,181.8 C411,181.8 410.2,185.6 410.2,185.9 C409.7,191.2 410.4,200.4 410.5,205.2 C410.6,208.7 410.3,214.6 411,218.4 C411.2,219.7 411,221.2 413,221.7 C415.5,222.2 418.3,222 425.7,221.5 C430.7,221.2 434.4,220.9 440,218.8 C444.9,217 449,213.8 451.8,209.8 C454.8,205.6 457.5,202.1 459,202.1 C461,202.1 460.5,207.6 460.5,208.7 C460.5,210 458.6,222.2 452.6,227.2 C451.9,228.7 447.3,230.8 446.4,231 C441.5,231.7 399.8,231 394.6,231 C382.8,231 377.9,231.6 377,231 C374.9,229.6 375.1,225.3 377.9,224.2 C382.8,222.3 385.6,221.3 386.2,212.4 C386.7,205.6 386.2,196.2 386.2,175.9 C386.2,156.4 386.4,147 386,142.2 C385.7,136.8 384.5,133 377.4,131.8 C373.9,131.1 372,130.5 372,128.5 C372,127 375.1,126 377.3,126 C385.1,126 402,126.5 409.6,126.5 L434.6,126.5 L434.6,126.7 Z" id="Shape" fill="#FFFFFF"></path>
            <path d="M547.8,172.5 C547.1,173.2 543.3,175 540.2,176.5 C539.3,176.8 539.7,178 540,178.6 C544,186.5 557.7,212.4 564.7,218.9 C568.3,219.9 569.4,219.3 573.6,220.1 C575.3,220.4 575.3,221.4 575.3,222.1 C575.3,223.1 572.7,225.6 571.2,226.5 C568.6,228.9 568,228.9 566.4,229.3 C543.8,234.4 541.3,225.8 538.4,221.8 C534.2,216.2 526.6,202.1 519.1,189.4 C518.1,187.6 516,184.1 514.4,183.1 C512.8,182.1 510.2,181 508,181 C507.5,181 506.3,181.7 506.1,182.5 C505.8,186 505.3,208.5 506.4,215.2 C507.5,221.5 508.2,222.1 516,224.1 C518.9,224.9 520.7,227.9 520.1,229.1 C519.5,230.2 517.1,231.1 514.5,230.9 C509.1,230.5 498.7,229.9 491.9,229.9 C484.3,229.9 475.9,231.7 474,231.4 C470.7,230.9 470,229.7 470,228.3 C470,226.8 472.4,225.8 472.4,225.8 C477.2,223.6 481,220.5 481.2,216.4 C482,200.2 482.3,187.5 482.3,171.6 C482.3,157.7 481.9,144.1 481.5,140.5 C481.2,137.5 480.8,134.3 472.5,132.5 C470.1,132 468,130.7 468,129.4 C468,128.2 470.8,126.8 473.2,126.8 C478.6,126.8 483.8,126.8 487.4,126.8 C493.6,126.8 509.3,126 518.6,126 C524.5,126 540.6,126.3 549.6,133.4 C554.6,137.4 558.6,145.3 558.6,152.7 C558.9,161.5 555,166.6 547.8,172.5 Z M527.2,137.2 C523.2,133.2 518.9,131.8 514.7,131.8 C514,131.8 510,132.3 508.8,133 C508.1,133.5 507.1,135.5 506.9,136.5 C506.4,141.9 505.4,167.7 506.1,172.8 C506.3,173.6 506.9,174.8 508.5,174.8 C514.9,174.8 524.2,172.7 525.7,171.7 C530.4,168.2 534.5,164.1 534.5,155.4 C534.5,150.7 533.6,143.5 527.2,137.2 Z" id="Shape" fill="#FFFFFF"></path>
            <path d="M590.300207,144.7 C589.800207,136.8 588.300207,134.8 581.100207,133.6 C576.900207,132.9 577.000207,129.8 577.000207,128.5 C577.000207,127.2 579.600207,126 582.900207,126 C588.000207,126 596.800207,126.7 602.200207,126.7 C610.300207,126.7 616.900207,126 622.700207,126 C624.300207,126 625.700207,127.2 625.800207,129 C625.900207,130.6 624.600207,131.8 622.100207,132.1 C615.800207,132.1 615.100207,137.9 614.800207,142.1 C614.600207,145.4 614.400207,148.9 614.400207,175.2 C614.400207,200.4 614.300207,206.2 614.800207,210.9 C616.100207,223 618.200207,222.8 624.600207,223.5 C627.600207,224.3 629.700207,226 629.300207,228.7 C629.000207,230.7 625.800207,231 623.900207,231 C618.300207,230.8 607.400207,230.8 599.400207,231 C594.600207,231 589.700207,231 583.600207,231 C583.600207,231 580.800207,230.6 580.500207,227.5 C580.400207,226.3 581.200207,224.6 583.000207,223.9 C591.500207,221.5 589.800207,218.6 590.200207,211.9 C590.500207,205.3 590.900207,188.5 590.900207,174.4 C590.700207,167 590.800207,151.5 590.300207,144.7 Z" id="Shape" fill="#FFFFFF"></path>
            <path d="M719.4,133.305633 C721,133.405633 721.2,127.405633 725.1,127.505633 C726.3,127.705633 727.1,132.205633 727.1,132.205633 C727.4,137.405633 727.9,142.505633 728.3,147.705633 C728.5,151.105633 729.4,160.405633 727.5,160.505633 C725.2,160.705633 724.1,157.805633 720.8,151.505633 C717.3,146.705633 713.9,144.305633 711,141.805633 C704.9,136.305633 699.7,133.305633 688.5,133.305633 C662.6,133.305633 655.8,153.605633 655.8,175.105633 C655.8,188.305633 659.4,193.805633 663.1,200.905633 C670.1,214.205633 680.2,218.505633 695.3,218.405633 C696.9,218.405633 704.9,216.105633 710.3,213.105633 C715.9,209.905633 721.5,205.205633 724.5,200.905633 C726.2,198.905633 729.6,196.605633 729.6,201.205633 C729.6,207.505633 728.4,207.805633 727.4,210.405633 C726.2,212.205633 721.4,217.405633 718.7,219.705633 C716.3,221.805633 708.1,229.605633 694,230.805633 C665.7,233.105633 649.1,223.105633 642.1,213.705633 C636.4,206.105633 631,194.505633 631,176.705633 C631,156.605633 642.1,143.405633 649,137.905633 C663,126.605633 671.5,124.205633 692.4,125.205633 C706.1,126.005633 715,133.005633 719.4,133.305633 Z" id="Shape" fill="#FFFFFF"></path>
            <path d="M855.5,125.1 C859.2,125.1 875,125.9 883.7,125.9 C884.5,125.9 887.3,127.7 887.6,128 C890.1,131 895.1,136.1 902.2,143.8 C911,153.9 942.3,184.6 950.1,192.3 C950.8,193 951.5,191.8 951.5,191.5 C952.3,186.9 951.8,167.7 951.8,158.7 C951.8,153.3 951.3,144.5 950.8,140.6 C950.3,137.3 948.4,133.8 940.4,131.9 C936.8,131.1 934.3,130.3 934.3,128.1 C934.3,126.9 936,125.8 939.4,125.8 C943.5,125.8 947,126 949.6,126 C958.6,126 966.4,125 970.8,125 C973.7,125 974.9,126.2 974.9,127.5 C974.9,128.3 973.5,129.8 970.7,130.8 C963.7,134.4 961.2,137.7 960.3,143.3 C959.6,149.1 958.6,195.4 958.6,202.5 C958.6,209.3 959.6,224.9 959.6,229.9 C959.6,231.4 957.1,232.9 956.5,232.9 C952.4,232.9 948.2,228.3 946.6,226.1 C943.2,221.6 939.8,218.2 935.2,212.7 C919.2,193.6 892.4,166.8 877.4,149.8 C876.6,148.8 875.5,150.5 875.5,150.8 C875.2,155.3 874.8,158.7 874.7,171.8 C874.4,198.7 874.2,205.1 875.4,214.5 C875.9,218.6 877.8,221.8 886.1,224.2 C889.5,225.2 893.3,226.7 893.3,227.7 C893.3,229.7 888.6,229.9 885.4,229.9 C880.5,229.9 878.1,229.4 872.1,229.4 C868.4,229.4 856.3,230.1 853.4,230.1 C851,230.1 849,228.9 849,227.8 C849,225.8 851.4,225.2 853.1,224.7 C860.7,222.6 865.2,220.9 865.7,208.5 C866.5,187.4 866.6,159.6 866.6,148.7 C866.6,141.8 864.8,138.3 864.1,137.5 C861.9,134.9 861.8,133.1 855.4,130.8 C853.5,130.5 850.6,129 850.6,127.7 C850.6,126.4 853,125.1 855.5,125.1 Z" id="Shape" fill="#FFFFFF"></path>
            <path d="M1376.1,137.7 C1385,146.3 1391.9,158.4 1391.9,176.2 C1391.9,199.5 1377.4,215.8 1366,222.1 C1356.3,227.7 1342.4,231 1329,231 C1322.2,231 1307.9,230.3 1298.6,230.3 C1291.1,230.3 1284.7,230 1284.7,230 C1283.8,229.5 1283.1,229.1 1283.1,227.8 C1283.1,225.9 1285.3,225.3 1285.3,225.3 C1290.7,224.3 1293.3,220.9 1293.4,205 C1293.5,195.8 1293.2,187.7 1293,181.9 C1292.8,173.7 1293.3,155.9 1293.2,146.1 C1293.1,135 1289.1,133.3 1282.9,131.6 C1281,131.3 1279,130.7 1279,128.5 C1279,126.7 1281.7,126 1284,126 L1294.6,126 C1302.9,126.3 1320.1,126.1 1332.7,126 C1355.6,126 1369.6,131.7 1376.1,137.7 Z M1319.6,134.5 C1318.8,135 1318.3,135.8 1318.3,136.7 C1318,141.6 1317.8,149 1317.8,163.5 L1317.8,187.5 C1317.8,198.9 1317.5,206 1317,213.5 C1316.9,215.3 1318.3,216.5 1320.4,218.7 C1322.7,220.8 1328.4,222.4 1330.1,222.4 C1336.5,222.4 1342.9,223.3 1351.8,215.9 C1361.9,207.5 1365.6,192.8 1365.6,178.6 C1365.6,168.2 1361.8,152.8 1354.4,143.8 C1347.6,135.9 1334.3,132 1325.7,132.6 C1321.9,132.7 1320.7,133.6 1319.6,134.5 Z" id="Shape" fill="#FFFFFF"></path>
            <path d="M178.4,146.012767 C190.2,172.012767 201.2,198.512767 204.9,206.812767 C210.3,219.112767 214.4,223.912767 219.2,225.412767 C222,226.212767 223.7,227.412767 223.7,228.512767 C223.7,229.712767 221.9,231.512767 218.2,231.112767 C212,230.512767 201.7,229.912767 196.3,229.912767 C190.4,229.912767 182,231.012767 177.7,230.812767 C176.1,230.712767 175.5,230.312767 175.4,228.712767 C175.3,226.712767 179,225.912767 179,225.912767 C184.9,224.212767 184.6,221.312767 184.6,218.912767 C184.6,215.912767 183.7,200.312767 176.5,196.812767 C176,196.412767 173.5,196.312767 173,196.312767 C151.4,196.112767 143.4,196.112767 145.2,196.112767 C146.1,196.112767 143.4,196.312767 143.4,196.312767 C137.5,196.112767 132.1,214.312767 132.8,217.012767 C134,222.312767 137.4,223.112767 144.7,225.212767 C148.1,226.212767 149.5,226.812767 149.5,228.712767 C149.5,229.912767 147.5,230.812767 144.4,230.812767 C141.4,230.812767 136.8,230.512767 131.2,230.512767 C124.3,230.512767 117.8,231.212767 115.3,231.212767 C111,231.212767 110,230.012767 110,229.112767 C110,227.812767 110.4,226.512767 114.4,225.012767 C121,220.012767 120.4,218.912767 125,209.712767 C129.1,201.912767 148.1,162.212767 158.2,142.212767 C158.2,142.212767 163.9,129.012767 165,127.212767 C166,125.712767 169,125.412767 170.1,127.412767 C170.2,127.212767 176.7,141.212767 178.4,146.012767 Z M172.9,184.412767 C169.9,177.312767 161.9,160.412767 161,158.412767 C160.1,156.112767 158.7,156.912767 158.1,157.812767 C154.7,165.812767 146.6,184.112767 146.3,185.012767 C146,186.212767 146.6,187.112767 148.1,187.212767 C152.4,187.312767 170.4,188.012767 172.7,187.012767 C173.3,186.712767 173.6,185.912767 172.9,184.412767 Z" id="Shape" fill="#FFFFFF"></path>
            <path d="M1438.575,200.6 L1441.675,199.2 L1445.275,183.8 L1446.875,177.6 L1456.375,177.6 C1456.575,177.6 1459.375,177.7 1462.575,177.1 C1464.375,176.7 1465.875,176.3 1466.975,175.9 C1466.975,175.9 1467.975,174.9 1467.975,174.3 C1467.975,173.7 1466.975,172.7 1466.975,172.7 C1465.875,172.3 1464.375,171.9 1462.575,171.5 C1459.375,170.9 1456.575,171 1456.375,171 L1446.875,170.9 L1445.275,165.1 L1441.675,149.4 C1441.675,149.3 1438.475,148 1438.475,148 L1440.075,165.8 L1440.075,171 L1435.575,171 C1435.375,171 1430.575,171.1 1427.775,171.7 C1427.075,171.9 1426.075,172.1 1424.975,172.4 L1419.875,165.4 C1419.775,165.3 1419.775,165.3 1419.675,165.3 L1417.275,165.3 C1417.175,165.3 1417.075,165.3 1417.075,165.4 C1416.975,165.5 1416.975,165.6 1417.075,165.6 L1419.475,174.2 L1419.475,174.3 L1417.075,182.9 C1417.075,182.9 1417.075,183 1417.075,183 C1417.075,183.1 1417.075,183.1 1417.175,183.2 C1417.275,183.3 1417.275,183.3 1417.375,183.3 L1419.775,183.3 C1419.875,183.3 1419.975,183.3 1419.975,183.2 L1425.075,176.2 C1426.175,176.5 1427.175,176.8 1427.875,176.9 C1430.675,177.6 1435.475,177.6 1435.675,177.6 C1435.775,177.6 1435.775,177.6 1435.875,177.6 L1440.175,177.6 L1440.175,182.8 C1440.075,182.8 1438.575,200.6 1438.575,200.6 Z" id="Shape" fill="#FFFFFF"></path>
            <path d="M799.4,146.112767 C811.2,172.112767 821.3,195.012767 824.9,203.312767 C830.3,215.612767 835.4,223.912767 840.2,225.412767 C843,226.212767 844.7,227.412767 844.7,228.512767 C844.7,229.712767 842.9,231.512767 839.2,231.112767 C833,230.512767 822.7,229.912767 817.3,229.912767 C811.4,229.912767 803,231.012767 798.7,230.812767 C797.1,230.712767 796.5,230.312767 796.4,228.712767 C796.3,226.712767 800,225.912767 800,225.912767 C805.9,224.212767 805.6,221.312767 805.6,218.912767 C805.6,215.912767 804.7,200.312767 797.5,196.812767 C797,196.412767 794.5,196.312767 794,196.312767 C772.4,196.112767 764.4,196.112767 766.2,196.112767 C767.1,196.112767 764.4,196.312767 764.4,196.312767 C758.5,196.112767 753.1,214.312767 753.8,217.012767 C755,222.312767 758.4,223.112767 765.7,225.212767 C769.1,226.212767 770.5,226.812767 770.5,228.712767 C770.5,229.912767 768.5,230.812767 765.4,230.812767 C762.4,230.812767 757.8,230.512767 752.2,230.512767 C745.3,230.512767 738.8,231.212767 736.3,231.212767 C732,231.212767 731,230.012767 731,229.112767 C731,227.812767 731.4,226.512767 735.4,225.012767 C742,220.012767 741.4,218.912767 746,209.712767 C750.1,201.912767 769.1,162.212767 779.2,142.212767 C779.2,142.212767 784.9,129.012767 786,127.212767 C787,125.712767 790,125.412767 791.1,127.412767 C791.2,127.312767 797.8,141.312767 799.4,146.112767 Z M793.9,184.512767 C790.9,177.412767 782.9,160.512767 782,158.512767 C781.1,156.312767 779.7,157.012767 779.1,157.912767 C775.7,165.912767 767.6,184.212767 767.3,185.112767 C767,186.312767 767.6,187.212767 769.1,187.312767 C773.4,187.412767 791.4,188.112767 793.7,187.112767 C794.3,186.712767 794.7,186.012767 793.9,184.512767 Z" id="Shape" fill="#FFFFFF"></path>
            <path d="M1229.1,146.012767 C1241,172.012767 1252.3,198.512767 1256,206.812767 C1261.5,219.112767 1265.6,223.912767 1270.5,225.412767 C1273.3,226.212767 1275,227.412767 1275,228.512767 C1275,229.712767 1273.1,231.512767 1269.5,231.112767 C1263.3,230.512767 1252.8,229.912767 1247.3,229.912767 C1241.3,229.912767 1232.8,231.012767 1228.5,230.812767 C1226.9,230.712767 1226.2,230.312767 1226.1,228.712767 C1226,226.712767 1229.8,225.912767 1229.8,225.912767 C1235.8,224.212767 1235.5,221.312767 1235.5,218.912767 C1235.5,215.912767 1234.6,200.312767 1227.3,196.812767 C1226.7,196.412767 1224.3,196.312767 1223.8,196.312767 C1201.8,196.112767 1193.8,196.112767 1195.7,196.112767 C1196.6,196.112767 1193.9,196.312767 1193.9,196.312767 C1187.9,196.112767 1182.5,214.312767 1183.1,217.012767 C1184.4,222.312767 1187.7,223.112767 1195.2,225.212767 C1198.7,226.212767 1200.1,226.812767 1200.1,228.712767 C1200.1,229.912767 1198.1,230.812767 1194.9,230.812767 C1191.9,230.812767 1187.2,230.512767 1181.5,230.512767 C1174.5,230.512767 1167.9,231.212767 1165.4,231.212767 C1161,231.212767 1160,230.012767 1160,229.112767 C1160,227.812767 1160.4,226.512767 1164.5,225.012767 C1171.2,220.012767 1170.5,218.912767 1175.2,209.712767 C1179.4,201.912767 1198.7,162.212767 1208.8,142.212767 C1208.8,142.212767 1214.6,129.012767 1215.7,127.212767 C1216.7,125.712767 1219.8,125.412767 1220.9,127.412767 C1220.8,127.212767 1227.4,141.212767 1229.1,146.012767 Z M1223.5,184.412767 C1220.4,177.312767 1212.3,160.412767 1211.5,158.412767 C1210.6,156.212767 1209.1,156.912767 1208.5,157.812767 C1205.1,165.812767 1196.8,184.112767 1196.6,185.012767 C1196.3,186.212767 1196.9,187.112767 1198.4,187.212767 C1202.7,187.312767 1221.1,188.012767 1223.3,187.012767 C1223.9,186.612767 1224.3,185.912767 1223.5,184.412767 Z" id="Shape" fill="#FFFFFF"></path>
            <path d="M1454.5,126.7 C1459.9,126.7 1465.2,126.2 1468.7,126.9 C1469.4,126.7 1472.3,127 1472.7,128.1 C1473.7,131 1473,142.8 1473,146.1 C1473,148.4 1474.2,152.9 1469.8,152.6 C1467.5,152.4 1467.1,146.7 1466.8,144.9 C1463.5,135.6 1458.1,136 1455,135.6 C1450.8,135 1447.7,134.4 1432.3,134.4 C1431.6,134.4 1429.6,134.6 1429.9,137.6 C1430.2,141.6 1430.2,185.6 1430.2,185.9 C1429.7,191.2 1430.4,200.4 1430.5,205.2 C1430.6,208.7 1430.3,214.6 1431,218.4 C1431.2,219.7 1431,221.2 1433,221.7 C1435.5,222.2 1438.3,222 1445.7,221.5 C1450.7,221.2 1454.4,220.9 1460,218.8 C1464.9,217 1469,213.8 1471.8,209.8 C1474.8,205.6 1477.5,202.1 1479,202.1 C1481,202.1 1480.5,207.6 1480.5,208.7 C1480.5,210 1478.6,222.2 1472.6,227.2 C1471.9,228.7 1467.3,230.8 1466.4,231 C1461.5,231.7 1419.8,231 1414.6,231 C1402.8,231 1397.9,231.6 1397,231 C1394.9,229.6 1395.1,225.3 1397.9,224.2 C1402.8,222.3 1405.6,221.3 1406.2,212.4 C1406.7,205.6 1406.2,196.2 1406.2,175.9 C1406.2,156.4 1406.4,147 1406,142.2 C1405.7,136.8 1404.5,133 1397.4,131.8 C1393.9,131.1 1392,130.5 1392,128.5 C1392,127 1395.1,126 1397.3,126 C1405.1,126 1422,126.5 1429.6,126.5 L1454.5,126.5 L1454.5,126.7 Z" id="Shape" fill="#FFFFFF"></path>
        </g>
    </g>
</svg>