<?xml version="1.0" encoding="UTF-8"?>
<svg width="34px" height="22px" viewBox="0 0 34 22" version="1.1" xmlns="http://www.w3.org/2000/svg" xmlns:xlink="http://www.w3.org/1999/xlink">
    <!-- Generator: Sketch 44.1 (41455) - http://www.bohemiancoding.com/sketch -->
    <title>img/muted</title>
    <desc>Created with Sketch.</desc>
    <defs></defs>
    <g id="Page-1" stroke="none" stroke-width="1" fill="none" fill-rule="evenodd" stroke-linecap="round">
        <g id="img/play" transform="translate(-7.000000, -13.000000)" stroke="#FFFFFF">
            <path d="M34.6233312,24.0259027 L29.5858974,29.0633365 C29.543739,29.1054949 29.543739,29.1738471 29.5858974,29.2160055 C29.6280558,29.2581639 29.6964081,29.2581639 29.7385665,29.2160055 L34.7760002,24.1785718 L39.8134339,29.2160055 C39.8555923,29.2581639 39.9239446,29.2581639 39.966103,29.2160055 C40.0082614,29.1738471 40.0082614,29.1054949 39.966103,29.0633365 L34.9286693,24.0259027 L39.9683812,18.9861908 C40.0105396,18.9440324 40.0105396,18.8756802 39.9683812,18.8335218 C39.9262228,18.7913634 39.8578705,18.7913634 39.8157122,18.8335218 L34.7760002,23.8732337 L29.7362883,18.8335218 C29.6941299,18.7913634 29.6257776,18.7913634 29.5836192,18.8335218 C29.5414608,18.8756802 29.5414608,18.9440324 29.5836192,18.9861908 L34.6233312,24.0259027 Z M24.4089046,15.999771 L24.4089046,32.160429 C24.4089046,33.2649985 23.5134741,34.160429 22.4089046,34.160429 C21.9803908,34.160429 21.5632066,34.0227982 21.2188135,33.7678129 L14.2612925,28.6165335 L10,28.6165335 L10,28.6165335 C8.8954305,28.6165335 8,27.721103 8,26.6165335 L8,21.5439563 C8,20.4393868 8.8954305,19.5439563 10,19.5439563 L14.2612925,19.5439563 L21.2187702,14.3924191 L21.2187702,14.3924191 C22.1064862,13.7351261 23.3589635,13.9219207 24.0162565,14.8096367 C24.271262,15.1540377 24.4089046,15.5712388 24.4089046,15.999771 Z" id="img/muted"></path>
        </g>
    </g>
</svg>