<?xml version="1.0" encoding="UTF-8"?>
<svg width="28px" height="24px" viewBox="0 0 28 24" version="1.1" xmlns="http://www.w3.org/2000/svg" xmlns:xlink="http://www.w3.org/1999/xlink">
    <!-- Generator: Sketch 44.1 (41455) - http://www.bohemiancoding.com/sketch -->
    <title>iconography/twitter</title>
    <desc>Created with Sketch.</desc>
    <defs></defs>
    <g id="Page-1" stroke="none" stroke-width="1" fill="none" fill-rule="evenodd">
        <g id="img/twitter" transform="translate(-11.000000, -13.000000)" stroke="#000000" fill="#FFFFFF">
            <path d="M29.525809,15.8798828 C28.1898649,15.8798828 27.0472982,16.3369095 26.0980747,17.2509766 C25.1488512,18.1650436 24.6742465,19.2724544 24.6742465,20.5732422 C24.6742465,20.9423847 24.7181914,21.3027326 24.8060825,21.6542969 C22.8197444,21.5488276 20.9608763,21.065434 19.2294223,20.2041016 C17.4979684,19.3427691 16.0258151,18.1826245 14.8129184,16.7236328 C14.6019799,17.0751971 14.4393838,17.453123 14.3251255,17.8574219 C14.2108671,18.2617208 14.1537387,18.6748026 14.1537387,19.0966797 C14.1537387,19.6240261 14.246023,20.1381811 14.4305942,20.6391602 C14.6151654,21.1401392 14.8656512,21.5883769 15.182059,21.9838867 C15.4984669,22.3793965 15.8763928,22.717772 16.3158481,22.9990234 C15.5424067,22.9814452 14.8129219,22.7880878 14.1273715,22.4189453 L14.1273715,22.4716797 C14.1273715,23.6142635 14.4965085,24.6162066 15.2347934,25.4775391 C15.9730784,26.3388715 16.8959207,26.8749989 18.0033481,27.0859375 C17.5990492,27.208985 17.1771784,27.2705078 16.7377231,27.2705078 C16.6322538,27.2705078 16.5267861,27.2661133 16.4213169,27.2573242 C16.3158476,27.2485351 16.2147744,27.2353517 16.1180942,27.2177734 C16.021414,27.2001952 15.9203408,27.1826173 15.8148715,27.1650391 C16.1312794,28.1142626 16.7025627,28.8920868 17.5287387,29.4985352 C18.3549147,30.1049835 19.295335,30.4169921 20.3500278,30.4345703 C18.5922065,31.7880927 16.5883203,32.4648438 14.338309,32.4648438 C14.1273705,32.4648438 13.9296186,32.4560548 13.7450473,32.4384766 C13.5604761,32.4208983 13.3715131,32.4033204 13.1781528,32.3857422 C15.4457423,33.7919992 17.9242331,34.4951172 20.6136997,34.4951172 C22.0551131,34.4951172 23.4217987,34.3105487 24.7137973,33.9414062 C26.005796,33.5722638 27.1483627,33.0625033 28.1415317,32.4121094 C29.1347007,31.7617155 30.0311761,31.0058637 30.8309848,30.1445312 C31.6307935,29.2831988 32.2899666,28.3515675 32.8085239,27.3496094 C33.3270812,26.3476512 33.722585,25.3193412 33.9950473,24.2646484 C34.2675096,23.2099557 34.4037387,22.1640677 34.4037387,21.1269531 C34.4037387,20.9335928 34.3949498,20.7314464 34.3773715,20.5205078 C34.6937794,20.291991 34.996999,20.0502942 35.2870395,19.7954102 C35.57708,19.5405261 35.8495382,19.2680679 36.1044223,18.9780273 C36.3593064,18.6879868 36.5922142,18.3847672 36.8031528,18.0683594 C35.9242422,18.4550801 35.0013998,18.7011713 34.0345981,18.8066406 C35.0717127,18.2089814 35.7748306,17.3476619 36.1439731,16.2226562 C35.1947496,16.7675808 34.1752286,17.1455068 33.0853794,17.3564453 C32.1185777,16.3720654 30.9320661,15.8798828 29.525809,15.8798828 Z M29.525809,14.1923828 C31.0023789,14.1923828 32.3383031,14.6318315 33.5336215,15.5107422 C34.1664372,15.3349601 34.7552985,15.0800798 35.3002231,14.7460938 C35.370536,14.7109373 35.4408478,14.6801759 35.5111606,14.6538086 C35.5814735,14.6274413 35.6517853,14.6054688 35.7220981,14.5878906 C35.792411,14.5703124 35.8627228,14.557129 35.9330356,14.5483398 C36.0033485,14.5395507 36.0736603,14.5351562 36.1439731,14.5351562 C36.548272,14.5351562 36.90862,14.6582019 37.2250278,14.9042969 C37.4008099,15.0449226 37.5414335,15.2163076 37.6469028,15.418457 C37.7523721,15.6206065 37.8138949,15.8271474 37.8314731,16.0380859 C37.8490513,16.2490245 37.8314734,16.4687489 37.7787387,16.6972656 C38.2533505,17.0312517 38.4906528,17.4882783 38.4906528,18.0683594 C38.4906528,18.2617197 38.4642859,18.4462882 38.4115512,18.6220703 C38.3588166,18.7978524 38.2709269,18.956054 38.1478794,19.0966797 C37.5677983,19.9404339 36.8822583,20.6874967 36.0912387,21.3378906 C36.0736605,22.8144605 35.8319637,24.2690358 35.3661411,25.7016602 C34.9003184,27.1342845 34.2235674,28.4789976 33.3358676,29.7358398 C32.4481679,30.9926821 31.3978854,32.1044874 30.1849887,33.0712891 C28.972092,34.0380908 27.5394892,34.7983371 25.8871372,35.3520508 C24.2347852,35.9057645 22.4769902,36.1826172 20.6136997,36.1826172 C17.5902471,36.1826172 14.8129311,35.3916095 12.2816684,33.8095703 C11.9476824,33.61621 11.7147746,33.3305683 11.582938,32.9526367 C11.4511014,32.5747051 11.4467069,32.2011737 11.5697544,31.8320312 C11.6928019,31.4980452 11.8993428,31.225587 12.1893833,31.0146484 C12.4794238,30.8037099 12.8090103,30.6982422 13.1781528,30.6982422 L13.3627231,30.7246094 C13.6615527,30.7597658 13.9867448,30.7773437 14.338309,30.7773437 C14.6371387,30.7773437 14.9403583,30.7597658 15.247977,30.7246094 C15.5555957,30.6894529 15.8588154,30.6367191 16.157645,30.5664062 C15.2435779,29.7929649 14.5931938,28.8349667 14.2064731,27.6923828 C14.1713167,27.5517571 14.1493442,27.406739 14.1405551,27.2573242 C14.131766,27.1079094 14.1449495,26.9628913 14.1801059,26.8222656 C13.0199439,25.5917907 12.4398715,24.1416099 12.4398715,22.4716797 L12.4398715,22.4189453 C12.4398715,21.9970682 12.5804951,21.6191423 12.8617465,21.2851562 C12.5980734,20.5820277 12.4662387,19.8525428 12.4662387,19.0966797 C12.4662387,17.9365176 12.7650639,16.8554738 13.3627231,15.8535156 C13.6615527,15.3613257 14.1010015,15.0976564 14.6810825,15.0625 L14.8129184,15.0361328 C15.3402648,15.0361328 15.7709246,15.2382792 16.1049106,15.6425781 C17.9154665,17.8046983 20.2357558,19.1669894 23.0658481,19.7294922 C23.2767867,18.1650312 23.9974826,16.8510795 25.2279575,15.7875977 C26.4584324,14.7241158 27.8910353,14.1923828 29.525809,14.1923828 Z" id="iconography/twitter"></path>
        </g>
    </g>
</svg>