<?xml version="1.0" encoding="UTF-8"?>
<svg width="35px" height="22px" viewBox="0 0 35 22" version="1.1" xmlns="http://www.w3.org/2000/svg" xmlns:xlink="http://www.w3.org/1999/xlink">
    <!-- Generator: Sketch 44.1 (41455) - http://www.bohemiancoding.com/sketch -->
    <title>img/unmuted</title>
    <desc>Created with Sketch.</desc>
    <defs></defs>
    <g id="Page-1" stroke="none" stroke-width="1" fill="none" fill-rule="evenodd" stroke-linecap="round">
        <g id="img/play" transform="translate(-7.000000, -13.000000)" stroke="#FFFFFF">
            <path d="M24.4089046,15.999771 L24.4089046,32.160429 L24.4089046,32.160429 C24.4089046,33.2649985 23.5134741,34.160429 22.4089046,34.160429 C21.9803908,34.160429 21.5632066,34.0227982 21.2188135,33.7678129 L14.2612925,28.6165335 L10,28.6165335 L10,28.6165335 C8.8954305,28.6165335 8,27.721103 8,26.6165335 L8,21.5439563 L8,21.5439563 C8,20.4393868 8.8954305,19.5439563 10,19.5439563 L14.2612925,19.5439563 L21.2187702,14.3924191 L21.2187702,14.3924191 C22.1064862,13.7351261 23.3589635,13.9219207 24.0162565,14.8096367 C24.271262,15.1540377 24.4089046,15.5712388 24.4089046,15.999771 L24.4089046,15.999771 Z M29,28.9378004 C31.9841349,26.3545173 32.1095957,21.6915348 29,18.9996437 M33,30.9378004 C37.0382268,27.4420192 36.9957371,20.4586429 33,16.9996437 M37,32.9706142 C42.0466145,28.6018995 41.9381455,19.2744598 37,14.9996437" id="img/unmuted"></path>
        </g>
    </g>
</svg>