<?xml version="1.0" encoding="UTF-8"?>
<svg width="55px" height="65px" viewBox="0 0 55 65" version="1.1" xmlns="http://www.w3.org/2000/svg" xmlns:xlink="http://www.w3.org/1999/xlink">
    <!-- Generator: Sketch 44.1 (41455) - http://www.bohemiancoding.com/sketch -->
    <title>E+airplane+modified</title>
    <desc>Created with Sketch.</desc>
    <defs></defs>
    <g id="Page-1" stroke="none" stroke-width="1" fill="none" fill-rule="evenodd">
        <g id="E+airplane+modified" fill="#000000" fill-rule="nonzero">
            <path d="M22.9379717,27.0724739 C24.3944292,27.6183347 25.926195,27.9379709 27.48,28.02 C29.65,28.02 32.2,27.96 32.33,27.96 L35.12,27.96 L35.12,24.82 L34.12,14.17 C34.12,14.17 36.07,15 36.07,15 L38.25,24.39 L39.25,27.84 L45.07,27.92 C46.3441272,27.8864463 47.618158,27.9903804 48.87,28.23 C49.7956406,28.3974195 50.7080059,28.6313593 51.6,28.93 C51.6,28.93 52.22,29.56 52.22,29.93 C52.22,30.3 51.6,30.93 51.6,30.93 C50.7080848,31.2289082 49.7957001,31.462853 48.87,31.63 C47.6182319,31.8701618 46.3441422,31.9741006 45.07,31.94 L39.25,31.94 L38.25,35.69 L36.01,44.93 L34.1,45.77 C34.1,45.77 35.1,35.1 35.1,35.1 L35.1,31.96 L32.42,31.96 L32.33,31.96 C32.21,31.96 29.07,31.79 27.57,31.79 C25.9521137,31.8776359 24.3555141,32.1976007 22.8292301,32.7398474 C22.7777673,35.2538481 22.74,36.9010314 22.74,36.95 C22.84,40.52 22.9,45.95 22.87,48.89 C22.84,51.83 23.22,54.27 23.31,56.7 C23.4152192,57.567427 23.9278474,58.3326546 24.69,58.76 C26.09,59.44 28.27,59.48 32.81,59.2 C36.2328229,59.0826108 39.6209146,58.4730238 42.87,57.39 C45.87,56.3 47.37,53.99 49.11,51.54 C50.96,48.94 52.61,46.82 53.52,46.82 C54.74,46.82 54.47,50.19 54.47,50.9 C54.47,51.61 53.32,59.24 49.62,62.32 C49.21,63.23 46.33,64.56 45.82,64.63 C42.82,65.03 17.15,64.63 13.9,64.63 C6.61,64.63 3.67,64.85 3.07,64.63 C1,63.83 0.36,61.52 5,60.39 C7.5,59.45 8.69,57.95 8.72,53.18 C8.72,49 8.72,43.18 8.72,30.68 C8.72,18.68 8.82,12.9 8.62,9.95 C8.42,6.6 7.71,4.26 3.34,3.55 C1.22,3.15 0,2.74 0,1.52 C0,0.61 1.93,0 3.25,0 C8,0 18.49,0.3 23.16,0.3 L38.4,0.3 C41.76,0.3 45,0.22 47.15,0.43 C47.56,0.33 49.39,0.43 49.61,1.15 C50.2,2.93 49.82,10.2 49.82,12.23 C49.82,13.65 50.54,16.44 47.87,16.23 C46.44,16.12 47.08,15.71 46.02,11.51 C44.67,5.51 41.11,4.7 38.74,4.57 C33.9714425,4.339457 29.1935821,4.38286174 24.43,4.7 C24.02,4.7 22.84,4.7 22.99,6.2 C23.2177212,8.41129275 23.0827311,18.9433989 22.9379717,27.0724739 Z"></path>
        </g>
    </g>
</svg>